<svg width="16" height="16" viewBox="0 0 16 16" fill="none" xmlns="http://www.w3.org/2000/svg">
<g clip-path="url(#clip0_14380_1293)">
<path d="M8.0026 14.6663C4.3206 14.6663 1.33594 11.6817 1.33594 7.99967C1.33594 4.31767 4.3206 1.33301 8.0026 1.33301C11.6846 1.33301 14.6693 4.31767 14.6693 7.99967C14.6693 11.6817 11.6846 14.6663 8.0026 14.6663ZM8.0026 13.333C9.41709 13.333 10.7736 12.7711 11.7738 11.7709C12.774 10.7707 13.3359 9.41416 13.3359 7.99967C13.3359 6.58519 12.774 5.22863 11.7738 4.22844C10.7736 3.22824 9.41709 2.66634 8.0026 2.66634C6.58812 2.66634 5.23156 3.22824 4.23137 4.22844C3.23117 5.22863 2.66927 6.58519 2.66927 7.99967C2.66927 9.41416 3.23117 10.7707 4.23137 11.7709C5.23156 12.7711 6.58812 13.333 8.0026 13.333ZM7.33594 4.66634H8.66927V5.99967H7.33594V4.66634ZM7.33594 7.33301H8.66927V11.333H7.33594V7.33301Z" fill="#FF0037"/>
</g>
<defs>
<clipPath id="clip0_14380_1293">
<rect width="16" height="16" fill="white"/>
</clipPath>
</defs>
</svg>
